<mxfile host="65bd71144e">
    <diagram id="XacK-7TJj95_ftxLq0Ly" name="Page-1">
        <mxGraphModel dx="714" dy="503" grid="1" gridSize="10" guides="1" tooltips="1" connect="1" arrows="1" fold="1" page="1" pageScale="1" pageWidth="827" pageHeight="1169" math="0" shadow="0">
            <root>
                <mxCell id="0"/>
                <mxCell id="1" parent="0"/>
                <mxCell id="2" value="" style="edgeStyle=none;html=1;fontFamily=Courier New;fontSize=18;" edge="1" parent="1" source="3" target="5">
                    <mxGeometry relative="1" as="geometry"/>
                </mxCell>
                <mxCell id="3" value="NICIO" style="ellipse;whiteSpace=wrap;html=1;fillColor=#60a917;fontColor=#ffffff;strokeColor=#2D7600;fontFamily=Courier New;fontSize=18;" vertex="1" parent="1">
                    <mxGeometry x="294" width="120" height="60" as="geometry"/>
                </mxCell>
                <mxCell id="5" value="x, y" style="shape=parallelogram;perimeter=parallelogramPerimeter;whiteSpace=wrap;html=1;fixedSize=1;fillColor=#1ba1e2;fontColor=#ffffff;strokeColor=#006EAF;fontFamily=Courier New;fontSize=18;" vertex="1" parent="1">
                    <mxGeometry x="294" y="100" width="120" height="60" as="geometry"/>
                </mxCell>
                <mxCell id="6" value="" style="edgeStyle=none;html=1;fontFamily=Courier New;fontSize=18;" edge="1" parent="1" target="10">
                    <mxGeometry relative="1" as="geometry">
                        <mxPoint x="354" y="160" as="sourcePoint"/>
                    </mxGeometry>
                </mxCell>
                <mxCell id="8" value="" style="edgeStyle=none;html=1;fontFamily=Courier New;fontSize=18;" edge="1" parent="1" source="10" target="12">
                    <mxGeometry relative="1" as="geometry">
                        <Array as="points">
                            <mxPoint x="550" y="240"/>
                        </Array>
                    </mxGeometry>
                </mxCell>
                <mxCell id="9" value="" style="edgeStyle=none;html=1;fontFamily=Courier New;fontSize=18;entryX=0.5;entryY=0;entryDx=0;entryDy=0;" edge="1" parent="1" source="10" target="14">
                    <mxGeometry relative="1" as="geometry">
                        <Array as="points">
                            <mxPoint x="230" y="240"/>
                        </Array>
                        <mxPoint x="230" y="310" as="targetPoint"/>
                    </mxGeometry>
                </mxCell>
                <mxCell id="10" value="&lt;font style=&quot;font-size: 11px;&quot;&gt;x &amp;gt; 945200&lt;br&gt;&amp;amp;&lt;br&gt;y == 0&lt;/font&gt;" style="rhombus;whiteSpace=wrap;html=1;fillColor=#e3c800;fontColor=#000000;strokeColor=#B09500;fontFamily=Courier New;fontSize=14;" vertex="1" parent="1">
                    <mxGeometry x="300" y="190" width="110" height="100" as="geometry"/>
                </mxCell>
                <mxCell id="11" style="edgeStyle=none;html=1;entryX=0.5;entryY=0;entryDx=0;entryDy=0;fontFamily=Courier New;fontSize=18;" edge="1" parent="1" source="12" target="15">
                    <mxGeometry relative="1" as="geometry">
                        <Array as="points">
                            <mxPoint x="550" y="530"/>
                            <mxPoint x="354" y="530"/>
                        </Array>
                    </mxGeometry>
                </mxCell>
                <mxCell id="12" value="&lt;div style=&quot;font-family: Consolas, &amp;quot;Courier New&amp;quot;, monospace; line-height: 19px;&quot;&gt;&lt;font color=&quot;#ffffff&quot;&gt;El préstamo que solicitó le será otorgado.&lt;/font&gt;&lt;/div&gt;" style="shape=document;whiteSpace=wrap;html=1;boundedLbl=1;fillColor=#fa6800;fontColor=#000000;strokeColor=#C73500;fontFamily=Courier New;fontSize=14;" vertex="1" parent="1">
                    <mxGeometry x="460" y="310" width="180" height="80" as="geometry"/>
                </mxCell>
                <mxCell id="13" style="edgeStyle=none;html=1;entryX=0.5;entryY=0;entryDx=0;entryDy=0;fontFamily=Courier New;fontSize=18;" edge="1" parent="1" source="14" target="15">
                    <mxGeometry relative="1" as="geometry">
                        <Array as="points">
                            <mxPoint x="230" y="530"/>
                            <mxPoint x="354" y="530"/>
                        </Array>
                    </mxGeometry>
                </mxCell>
                <mxCell id="14" value="&lt;div style=&quot;font-family: Consolas, &amp;quot;Courier New&amp;quot;, monospace; line-height: 19px;&quot;&gt;&lt;font style=&quot;&quot; color=&quot;#ffffff&quot;&gt;El préstamo que solicitó NO le será otorgado ya que no cumple con los requisitos necesarios.&lt;/font&gt;&lt;/div&gt;" style="shape=document;whiteSpace=wrap;html=1;boundedLbl=1;fillColor=#fa6800;fontColor=#000000;strokeColor=#C73500;fontFamily=Courier New;fontSize=14;" vertex="1" parent="1">
                    <mxGeometry x="130" y="310" width="200" height="100" as="geometry"/>
                </mxCell>
                <mxCell id="15" value="FIN" style="ellipse;whiteSpace=wrap;html=1;fillColor=#e51400;fontColor=#ffffff;strokeColor=#B20000;fontFamily=Courier New;fontSize=18;" vertex="1" parent="1">
                    <mxGeometry x="294" y="580" width="120" height="60" as="geometry"/>
                </mxCell>
                <mxCell id="16" value="TRUE" style="text;html=1;align=center;verticalAlign=middle;resizable=0;points=[];autosize=1;strokeColor=none;fillColor=none;fontSize=18;fontFamily=Courier New;" vertex="1" parent="1">
                    <mxGeometry x="465" y="210" width="70" height="40" as="geometry"/>
                </mxCell>
                <mxCell id="17" value="FALSE" style="text;html=1;align=center;verticalAlign=middle;resizable=0;points=[];autosize=1;strokeColor=none;fillColor=none;fontSize=18;fontFamily=Courier New;" vertex="1" parent="1">
                    <mxGeometry x="234" y="210" width="80" height="40" as="geometry"/>
                </mxCell>
            </root>
        </mxGraphModel>
    </diagram>
</mxfile>